<mxfile host="app.diagrams.net" modified="2024-05-11T20:57:55.738Z" agent="Mozilla/5.0 (Macintosh; Intel Mac OS X 10_15_7) AppleWebKit/537.36 (KHTML, like Gecko) Chrome/124.0.0.0 Safari/537.36" version="24.4.0" etag="NvdVb1Z3LtwUeDX3pYgN" type="github">
  <diagram name="Page-1" id="kdcocM_1ZWOqW11oOfW3">
    <mxGraphModel>
      <root>
        <mxCell id="0" />
        <mxCell id="1" parent="0" />
      </root>
    </mxGraphModel>
  </diagram>
</mxfile>
